# xmcd CD database file
#
# Track frame offsets:
#	150
#	19822
#	34522
#	48656
#	66865
#	101531
#	116292
#	135194
#	153985
#	168556
#	185422
#
# Disc length: 2668 seconds
#
# Revision: 7
# Processed by: cddbd v1.5.2PL0 Copyright (c) Steve Scherf et al.
# Submitted via: CDex 1.70beta2
#
DISCID=860a6a0b
DTITLE=Jonny Lang and The Big Band - Smokin'
DYEAR=1995
DGENRE=Rock and Roll
TTITLE0=Louise
TTITLE1=Changes
TTITLE2=Lovin my baby
TTITLE3=I love you the best
TTITLE4=Nice and warm
TTITLE5=It's obdacious
TTITLE6=Sugarman
TTITLE7=E Train
TTITLE8=Too tired
TTITLE9=Smokin'
TTITLE10=Malted milk
EXTD=YEAR: 1995
EXTT0=
EXTT1=
EXTT2=
EXTT3=
EXTT4=
EXTT5=
EXTT6=
EXTT7=
EXTT8=
EXTT9=
EXTT10=
PLAYORDER=
